<svg xmlns="http://www.w3.org/2000/svg" xmlns:xlink="http://www.w3.org/1999/xlink" viewBox="0 0 500 500"><defs><clipPath id="freepik--clip-path--inject-3"><polyline points="417.62 254.85 417.62 241.3 430.54 241.3" style="fill:#407BFF"></polyline></clipPath><clipPath id="freepik--clip-path-2--inject-3"><polygon points="357.17 242.76 355.22 234.92 331.9 234.92 329.95 242.76 295.94 242.76 295.94 304.17 364.87 304.17 364.87 242.76 357.17 242.76" style="fill:#fff"></polygon></clipPath><clipPath id="freepik--clip-path-3--inject-3"><path d="M418.61,254.85h-2v-5h2Zm0-10h-2V240.3h2.45v2h-.45Zm10.45-2.55h-5v-2h5Z" style="fill:#407BFF;clip-path:url(#freepik--clip-path--inject-3)"></path></clipPath><clipPath id="freepik--clip-path-4--inject-3"><path d="M365.87,305.17H361v-2h2.83V303h2Zm-9.83,0h-5v-2h5Zm-10,0h-5v-2h5Zm-10,0h-5v-2h5Zm-10,0h-5v-2h5Zm-10,0h-5v-2h5Zm-10,0h-5v-2h5Zm-10,0h-1.1v-5.89h2v4.89H296ZM365.87,298h-2v-5h2Zm-68.93-3.72h-2v-5h2ZM365.87,288h-2v-5h2Zm-68.93-3.72h-2v-5h2ZM365.87,278h-2v-5h2Zm-68.93-3.72h-2v-5h2ZM365.87,268h-2v-5h2Zm-68.93-3.72h-2v-5h2ZM365.87,258h-2v-5h2Zm-68.93-3.72h-2v-5h2ZM365.87,248h-2v-5h2Zm-68.93-3.72h-2v-2.52h4.48v2h-2.48Zm63.18-.52h-3.73l-1.4-5.61,1.94-.48,1,4.09h2.17Zm-30.7,0h-5v-2h5Zm-10,0h-5v-2h5Zm-10,0h-5v-2h5ZM332,238.67l-1.94-.48,1.06-4.27h2.17v2h-.61Zm21.29-2.75h-5v-2h5Zm-10,0h-5v-2h5Z" style="fill:#407BFF;clip-path:url(#freepik--clip-path-2--inject-3)"></path></clipPath></defs><g id="freepik--background-complete--inject-3"><rect y="382.4" width="500" height="0.25" style="fill:#ebebeb"></rect><rect x="416.78" y="398.49" width="33.12" height="0.25" style="fill:#ebebeb"></rect><rect x="322.53" y="401.21" width="8.69" height="0.25" style="fill:#ebebeb"></rect><rect x="396.59" y="389.21" width="19.19" height="0.25" style="fill:#ebebeb"></rect><rect x="52.46" y="390.89" width="43.19" height="0.25" style="fill:#ebebeb"></rect><rect x="104.56" y="390.89" width="6.33" height="0.25" style="fill:#ebebeb"></rect><rect x="131.47" y="395.11" width="93.68" height="0.25" style="fill:#ebebeb"></rect><path d="M237,337.8H43.91a5.71,5.71,0,0,1-5.7-5.71V60.66A5.71,5.71,0,0,1,43.91,55H237a5.71,5.71,0,0,1,5.71,5.71V332.09A5.71,5.71,0,0,1,237,337.8ZM43.91,55.2a5.46,5.46,0,0,0-5.45,5.46V332.09a5.46,5.46,0,0,0,5.45,5.46H237a5.47,5.47,0,0,0,5.46-5.46V60.66A5.47,5.47,0,0,0,237,55.2Z" style="fill:#ebebeb"></path><path d="M453.31,337.8H260.21a5.72,5.72,0,0,1-5.71-5.71V60.66A5.72,5.72,0,0,1,260.21,55h193.1A5.71,5.71,0,0,1,459,60.66V332.09A5.71,5.71,0,0,1,453.31,337.8ZM260.21,55.2a5.47,5.47,0,0,0-5.46,5.46V332.09a5.47,5.47,0,0,0,5.46,5.46h193.1a5.47,5.47,0,0,0,5.46-5.46V60.66a5.47,5.47,0,0,0-5.46-5.46Z" style="fill:#ebebeb"></path><rect x="54.5" y="89.55" width="143.13" height="147.9" style="fill:#ebebeb"></rect><rect x="59.5" y="89.55" width="143.13" height="147.9" style="fill:#f0f0f0"></rect><rect x="63.11" y="93.06" width="135.73" height="140.95" style="fill:#e0e0e0"></rect><rect x="63.11" y="93.06" width="132.34" height="140.95" style="fill:#f5f5f5"></rect><rect x="127.96" y="93.06" width="2.69" height="140.95" style="fill:#ebebeb"></rect><polygon points="112.49 93.06 74.77 234.01 71.15 234.01 108.87 93.06 112.49 93.06" style="fill:#fff"></polygon><rect x="129.49" y="90.88" width="2.3" height="145.83" style="fill:#f0f0f0"></rect><polygon points="98.8 93.06 63.11 226.45 63.11 153.13 79.18 93.06 98.8 93.06" style="fill:#fff"></polygon><polygon points="195.45 105.85 195.45 119.38 164.77 234.01 161.15 234.01 195.45 105.85" style="fill:#fff"></polygon><polygon points="195.45 133.17 195.45 206.49 188.09 234.01 168.47 234.01 195.45 133.17" style="fill:#fff"></polygon><path d="M305.09,282.6H425.23a8.25,8.25,0,0,1-7.88,8.23c-12.91.58-32.77,2.63-39.07,9.77-11.74,13.32-10.61,60.1,3.46,70.93,4.41,3.4,17.26,10.14,17.26,10.14H331.31s12-6.88,16.19-10.14c14-10.92,14.39-57.67,2.59-70.93-6-6.8-24.67-9-37.16-9.69A8.31,8.31,0,0,1,305.09,282.6Z" style="fill:#f5f5f5"></path><path d="M410.34,291.27c-12.2,1-26.82,3.39-32.06,9.33a24,24,0,0,0-4,6.88H354.13a24.13,24.13,0,0,0-4-6.88c-5.26-5.91-20-8.34-32-9.33Z" style="fill:#e6e6e6"></path><polygon points="356.26 282.66 357.9 263.99 334.21 263.99 332.58 282.66 356.26 282.66" style="fill:#ebebeb"></polygon><polygon points="356.26 282.66 357.9 263.99 359.17 263.99 357.54 282.66 356.26 282.66" style="fill:#e0e0e0"></polygon><polygon points="354.01 280.76 355.31 265.89 336.46 265.89 335.16 280.76 354.01 280.76" style="fill:#f0f0f0"></polygon><polygon points="352.57 279.53 353.65 267.11 337.91 267.11 336.82 279.53 352.57 279.53" style="fill:#fafafa"></polygon><polygon points="363.94 282.6 387.73 282.6 385.09 252.43 361.3 252.43 363.94 282.6" style="fill:#e6e6e6"></polygon><polygon points="363.94 282.6 362.81 282.6 360.17 252.43 361.3 252.43 363.94 282.6" style="fill:#e0e0e0"></polygon><polygon points="366.1 279.53 385.04 279.53 382.94 255.51 364 255.51 366.1 279.53" style="fill:#f0f0f0"></polygon><polygon points="367.49 277.55 383.31 277.55 381.55 257.49 365.73 257.49 367.49 277.55" style="fill:#fafafa"></polygon><path d="M375.48,266.51h0a2.74,2.74,0,0,1-3.89,0h0a2.74,2.74,0,0,1,0-3.89h0a2.76,2.76,0,0,1,3.89,0h0A2.76,2.76,0,0,1,375.48,266.51Z" style="fill:#ebebeb"></path><path d="M374.31,269.88h0a2,2,0,0,1,2.85,0h0a2,2,0,0,1-1.42,3.44h0A2,2,0,0,1,374.31,269.88Z" style="fill:#f0f0f0"></path><path d="M172.69,375.5h23.17l-12.18-99.2a8.85,8.85,0,0,0-8.53-7.61H74L88.86,375.5Z" style="fill:#f5f5f5"></path><path d="M99.21,375.5H76L63.85,276.3a6.6,6.6,0,0,1,6.68-7.61h8A8.86,8.86,0,0,1,87,276.3Z" style="fill:#f0f0f0"></path><path d="M107.74,375.38l-4.19-48a4.59,4.59,0,0,0-4-4.14L97.84,323a6.12,6.12,0,0,1-5.33-5.55l-.77-8.75a6.14,6.14,0,0,1,6.11-6.67H59.13A6.13,6.13,0,0,0,53,308.74l.76,8.75A6.13,6.13,0,0,0,59.12,323l1.72.22a4.58,4.58,0,0,1,4,4.14l4.2,48a6.78,6.78,0,0,0,6.75,6.19h38.72A6.78,6.78,0,0,1,107.74,375.38Z" style="fill:#e6e6e6"></path><path d="M214.31,315.39a14.58,14.58,0,0,1,14.53-13.32H195.13a14.59,14.59,0,0,0-14.54,13.32l-3.32,38H211Z" style="fill:#e6e6e6"></path><path d="M243.81,302.07h-15a14.58,14.58,0,0,0-14.53,13.32l-3.33,38H130.69l-3.33-38a14.59,14.59,0,0,0-14.53-13.32h-15a6.14,6.14,0,0,0-6.11,6.67l.77,8.75A6.12,6.12,0,0,0,97.84,323l1.73.22a4.57,4.57,0,0,1,4,4.14l4.2,48a6.78,6.78,0,0,0,6.75,6.19H227.18a6.77,6.77,0,0,0,6.74-6.19l4.2-48a4.58,4.58,0,0,1,4-4.14l1.72-.22a6.12,6.12,0,0,0,5.34-5.55l.77-8.75A6.15,6.15,0,0,0,243.81,302.07Z" style="fill:#f0f0f0"></path></g><g id="freepik--Shadow--inject-3"><ellipse id="freepik--path--inject-3" cx="250" cy="416.24" rx="193.89" ry="11.32" style="fill:#f5f5f5"></ellipse></g><g id="freepik--Plant--inject-3"><path d="M412.74,388.65c0-.32-1.11-32.64-6.34-37.73-5-4.91-10.88-.18-11.13,0l-.64-.77c.07-.06,6.76-5.52,12.46,0,5.53,5.37,6.6,37.07,6.65,38.42Z" style="fill:#407BFF"></path><path d="M413.19,395c-.15-1.58-3.6-38.88,10.47-55l.75.65c-13.79,15.83-10.26,53.89-10.22,54.27Z" style="fill:#407BFF"></path><path d="M412.85,391l-1-.07c0-.44,2.74-43.67-7.53-53.12L405,337C415.62,346.79,413,389.15,412.85,391Z" style="fill:#407BFF"></path><path d="M414.19,390.92h-1c0-1.2.34-29.28,8.35-33.87a5.72,5.72,0,0,1,5.23-.51c4.85,2,7.25,10.62,7.35,11l-1,.27c0-.09-2.37-8.51-6.78-10.33a4.72,4.72,0,0,0-4.35.45C414.52,362.21,414.19,390.63,414.19,390.92Z" style="fill:#407BFF"></path><path d="M411.09,390.94l-1-.06c0-.22,1.2-22.12-4.7-29.82-1.42-1.85-2.95-2.72-4.56-2.62-3.83.27-7.07,5.9-7.1,6l-.87-.49c.14-.25,3.53-6.16,7.9-6.47,1.95-.14,3.79.88,5.42,3C412.31,368.44,411.14,390,411.09,390.94Z" style="fill:#407BFF"></path><path d="M412.21,393.93c-.16-2.13-3.88-52.25,2.67-61.11l.8.6c-6.32,8.55-2.51,59.91-2.48,60.43Z" style="fill:#407BFF"></path><path d="M428.51,361.69s-3.92,1.44-2.75,4.85,13.54,9,13.54,9,5.19-4.75.42-12.48S428.61,359.25,428.51,361.69Z" style="fill:#407BFF"></path><path d="M428.51,361.69s-3.92,1.44-2.75,4.85,13.54,9,13.54,9,5.19-4.75.42-12.48S428.61,359.25,428.51,361.69Z" style="fill:#fff;opacity:0.2;isolation:isolate"></path><path d="M411.49,355.2s4.17-.17,4.4,3.42-9,13.53-9,13.53-6.61-2.39-5.19-11.35S410.45,353,411.49,355.2Z" style="fill:#407BFF"></path><path d="M411.49,355.2s4.17-.17,4.4,3.42-9,13.53-9,13.53-6.61-2.39-5.19-11.35S410.45,353,411.49,355.2Z" style="fill:#fff;opacity:0.2;isolation:isolate"></path><path d="M408,338s2.78-.3,2.56-2-10.81-6.05-17,1c0,0,4,6.86,9.77,6.95S408,338,408,338Z" style="fill:#407BFF"></path><path d="M408,338s2.78-.3,2.56-2-10.81-6.05-17,1c0,0,4,6.86,9.77,6.95S408,338,408,338Z" style="fill:#fff;opacity:0.2;isolation:isolate"></path><path d="M413.14,333.89s-2.52,1.22-3.22-.34,6-10.85,15-8.17c0,0,.24,7.94-4.62,11.08S413.14,333.89,413.14,333.89Z" style="fill:#407BFF"></path><path d="M413.14,333.89s-2.52,1.22-3.22-.34,6-10.85,15-8.17c0,0,.24,7.94-4.62,11.08S413.14,333.89,413.14,333.89Z" style="fill:#fff;opacity:0.2;isolation:isolate"></path><path d="M400,360.32s1.92-1.55-.15-2.31-12.23-.54-12.34,9.52c0,0,11.83,2,13.3-1.86S400,360.32,400,360.32Z" style="fill:#407BFF"></path><path d="M400,360.32s1.92-1.55-.15-2.31-12.23-.54-12.34,9.52c0,0,11.83,2,13.3-1.86S400,360.32,400,360.32Z" style="fill:#fff;opacity:0.2;isolation:isolate"></path><path d="M424.1,337.75s-1.91-1.55.16-2.3,12.22-.55,12.33,9.52c0,0-11.83,2-13.3-1.87S424.1,337.75,424.1,337.75Z" style="fill:#407BFF"></path><path d="M424.1,337.75s-1.91-1.55.16-2.3,12.22-.55,12.33,9.52c0,0-11.83,2-13.3-1.87S424.1,337.75,424.1,337.75Z" style="fill:#fff;opacity:0.2;isolation:isolate"></path><path d="M417.85,345.86s-.17-1.89,1.35-1.15,6.82,6.45,1.33,11.87c0,0-7.39-5.47-6.06-8.32S417.85,345.86,417.85,345.86Z" style="fill:#407BFF"></path><path d="M417.85,345.86s-.17-1.89,1.35-1.15,6.82,6.45,1.33,11.87c0,0-7.39-5.47-6.06-8.32S417.85,345.86,417.85,345.86Z" style="fill:#fff;opacity:0.2;isolation:isolate"></path><path d="M398.26,348.54s1.15-1.5-.53-1.69-9.2,1.82-7.45,9.34c0,0,9.17-.69,9.56-3.81S398.26,348.54,398.26,348.54Z" style="fill:#407BFF"></path><path d="M398.26,348.54s1.15-1.5-.53-1.69-9.2,1.82-7.45,9.34c0,0,9.17-.69,9.56-3.81S398.26,348.54,398.26,348.54Z" style="fill:#fff;opacity:0.2;isolation:isolate"></path><polygon points="429.24 418.8 397.78 418.8 394.39 384.36 432.63 384.36 429.24 418.8" style="fill:#407BFF"></polygon><polygon points="429.24 418.8 397.78 418.8 394.39 384.36 432.63 384.36 429.24 418.8" style="fill:#fff;opacity:0.5;isolation:isolate"></polygon><rect x="392.71" y="380.56" width="41.61" height="7.6" style="fill:#407BFF"></rect><rect x="392.71" y="380.56" width="41.61" height="7.6" style="fill:#fff;opacity:0.2;isolation:isolate"></rect></g><g id="freepik--Files--inject-3"><rect x="309.05" y="85.5" width="82.25" height="62.13" style="fill:#fff"></rect><polygon points="392.3 148.63 388.8 148.63 388.8 146.63 390.3 146.63 390.3 145.13 392.3 145.13 392.3 148.63" style="fill:#407BFF"></polygon><path d="M383.65,148.63H378.5v-2h5.15Zm-10.3,0H368.2v-2h5.15Zm-10.3,0H357.9v-2h5.15Zm-10.3,0H347.6v-2h5.15Zm-10.3,0H337.3v-2h5.15Zm-10.3,0H327v-2h5.15Zm-10.3,0H316.7v-2h5.15Z" style="fill:#407BFF"></path><polygon points="311.55 148.63 308.05 148.63 308.05 145.13 310.05 145.13 310.05 146.63 311.55 146.63 311.55 148.63" style="fill:#407BFF"></polygon><path d="M310.05,139.93h-2v-5.19h2Zm0-10.38h-2v-5.2h2Zm0-10.39h-2V114h2Zm0-10.39h-2v-5.19h2Zm0-10.38h-2v-5.2h2Z" style="fill:#407BFF"></path><polygon points="310.05 88 308.05 88 308.05 84.5 311.55 84.5 311.55 86.5 310.05 86.5 310.05 88" style="fill:#407BFF"></polygon><path d="M383.65,86.5H378.5v-2h5.15Zm-10.3,0H368.2v-2h5.15Zm-10.3,0H357.9v-2h5.15Zm-10.3,0H347.6v-2h5.15Zm-10.3,0H337.3v-2h5.15Zm-10.3,0H327v-2h5.15Zm-10.3,0H316.7v-2h5.15Z" style="fill:#407BFF"></path><polygon points="392.3 88 390.3 88 390.3 86.5 388.8 86.5 388.8 84.5 392.3 84.5 392.3 88" style="fill:#407BFF"></polygon><path d="M392.3,139.93h-2v-5.19h2Zm0-10.38h-2v-5.2h2Zm0-10.39h-2V114h2Zm0-10.39h-2v-5.19h2Zm0-10.38h-2v-5.2h2Z" style="fill:#407BFF"></path><rect x="324.11" y="80.44" width="52.13" height="72.25" transform="translate(466.73 -233.61) rotate(90)" style="fill:#407BFF;opacity:0.2"></rect><g style="opacity:0.4"><path d="M342.22,123.91l1.93-2.69a10.11,10.11,0,0,1-1.11-4.66c0-4.82,3.19-8.72,7.13-8.72a6,6,0,0,1,3,.82l1.33-1.84a10.13,10.13,0,0,0-4.34-1.06c-7.82,0-14.15,10.8-14.15,10.8A32.65,32.65,0,0,0,342.22,123.91Z" style="fill:#407BFF"></path><path d="M357.11,108.41l6.25-8.68a.89.89,0,0,0-.2-1.23.9.9,0,0,0-.84-.1.86.86,0,0,1-.13.74l-25,34.7a.83.83,0,0,1-.38.29.87.87,0,0,0,1.55.29l6.28-8.73a10.74,10.74,0,0,0,5.49,1.68c7.82,0,14.16-10.81,14.16-10.81A31.37,31.37,0,0,0,357.11,108.41Zm-6.94,16.88a6.29,6.29,0,0,1-4.07-1.57l1-1.43a4.91,4.91,0,0,0,3,1.1c3.08,0,5.58-3.06,5.58-6.83a7.72,7.72,0,0,0-1.33-4.41l1-1.43a9.8,9.8,0,0,1,1.85,5.84C357.3,121.38,354.11,125.29,350.17,125.29Z" style="fill:#407BFF"></path><path d="M350.17,109.73c-3.08,0-5.58,3.06-5.58,6.83a8.14,8.14,0,0,0,.64,3.16l6.88-9.56A4.62,4.62,0,0,0,350.17,109.73Z" style="fill:#407BFF"></path></g><polygon points="430.54 153.5 430.54 241.3 417.62 254.85 355.11 254.85 355.11 153.5 430.54 153.5" style="fill:#fff"></polygon><polygon points="431.54 156 429.54 156 429.54 154.5 428.04 154.5 428.04 152.5 431.54 152.5 431.54 156" style="fill:#407BFF"></polygon><path d="M423.4,250.23,422,248.85l3.34-3.5,1.45,1.38Zm6.67-7-1.44-1.39.91-.95v-2.71h2v3.51Zm1.47-9.89h-2v-4.83h2Zm0-9.67h-2v-4.83h2Zm0-9.67h-2v-4.83h2Zm0-9.67h-2v-4.83h2Zm0-9.66h-2v-4.84h2Zm0-9.67h-2v-4.84h2Zm0-9.67h-2V170.5h2Zm0-9.67h-2v-4.84h2Z" style="fill:#407BFF"></path><polygon points="418.04 255.85 415.11 255.85 415.11 253.85 417.19 253.85 418.62 252.35 420.06 253.73 418.04 255.85" style="fill:#407BFF"></polygon><path d="M409.89,255.85h-5.23v-2h5.23Zm-10.46,0H394.2v-2h5.23Zm-10.46,0h-5.22v-2H389Zm-10.45,0h-5.23v-2h5.23Zm-10.46,0h-5.23v-2h5.23Z" style="fill:#407BFF"></path><polygon points="357.6 255.85 354.1 255.85 354.1 252.35 356.1 252.35 356.1 253.85 357.6 253.85 357.6 255.85" style="fill:#407BFF"></polygon><path d="M356.1,247.28h-2v-5.07h2Zm0-10.14h-2v-5.07h2Zm0-10.14h-2v-5.08h2Zm0-10.15h-2v-5.07h2Zm0-10.14h-2v-5.07h2Zm0-10.14h-2V191.5h2Zm0-10.14h-2v-5.07h2Zm0-10.15h-2v-5.07h2Zm0-10.14h-2v-5.07h2Z" style="fill:#407BFF"></path><polygon points="356.1 156 354.1 156 354.1 152.5 357.6 152.5 357.6 154.5 356.1 154.5 356.1 156" style="fill:#407BFF"></polygon><path d="M423.34,154.5h-4.7v-2h4.7Zm-9.39,0h-4.7v-2H414Zm-9.39,0h-4.7v-2h4.7Zm-9.39,0h-4.7v-2h4.7Zm-9.39,0h-4.7v-2h4.7Zm-9.39,0h-4.7v-2h4.7Zm-9.39,0h-4.7v-2H367Z" style="fill:#407BFF"></path><polyline points="417.62 254.85 417.62 241.3 430.54 241.3" style="fill:#407BFF"></polyline><path d="M418.61,254.85h-2v-5h2Zm0-10h-2V240.3h2.45v2h-.45Zm10.45-2.55h-5v-2h5Z" style="fill:#407BFF"></path><g style="clip-path:url(#freepik--clip-path-3--inject-3)"><polyline points="417.62 254.85 417.62 241.3 430.54 241.3" style="fill:#fff;opacity:0.7000000000000001"></polyline></g><g style="opacity:0.4"><path d="M383.13,213.12l2.36-3.27a12.36,12.36,0,0,1-1.35-5.67c0-5.88,3.88-10.63,8.68-10.63a7.32,7.32,0,0,1,3.67,1l1.62-2.24a12.25,12.25,0,0,0-5.29-1.3c-9.53,0-17.25,13.17-17.25,13.17A39.61,39.61,0,0,0,383.13,213.12Z" style="fill:#407BFF"></path><path d="M401.28,194.24l7.61-10.58a1.06,1.06,0,0,0-1.26-1.61,1.08,1.08,0,0,1-.16.9l-30.41,42.27a1,1,0,0,1-.47.36,1.06,1.06,0,0,0,.4.6,1.11,1.11,0,0,0,.62.2,1.07,1.07,0,0,0,.87-.45l7.65-10.63a13.2,13.2,0,0,0,6.69,2c9.52,0,17.25-13.16,17.25-13.16A38.35,38.35,0,0,0,401.28,194.24Zm-8.46,20.56a7.58,7.58,0,0,1-5-1.91l1.26-1.74a5.88,5.88,0,0,0,3.7,1.35c3.75,0,6.8-3.73,6.8-8.32A9.41,9.41,0,0,0,398,198.8l1.26-1.74a12,12,0,0,1,2.24,7.12C401.5,210.05,397.62,214.8,392.82,214.8Z" style="fill:#407BFF"></path><path d="M392.82,195.85c-3.75,0-6.8,3.73-6.8,8.33a9.79,9.79,0,0,0,.78,3.84l8.38-11.64A5.61,5.61,0,0,0,392.82,195.85Z" style="fill:#407BFF"></path></g><polygon points="357.17 242.76 355.22 234.92 331.9 234.92 329.95 242.76 295.94 242.76 295.94 304.17 364.87 304.17 364.87 242.76 357.17 242.76" style="fill:#fff"></polygon><path d="M365.87,305.17H361v-2h2.83V303h2Zm-9.83,0h-5v-2h5Zm-10,0h-5v-2h5Zm-10,0h-5v-2h5Zm-10,0h-5v-2h5Zm-10,0h-5v-2h5Zm-10,0h-5v-2h5Zm-10,0h-1.1v-5.89h2v4.89H296ZM365.87,298h-2v-5h2Zm-68.93-3.72h-2v-5h2ZM365.87,288h-2v-5h2Zm-68.93-3.72h-2v-5h2ZM365.87,278h-2v-5h2Zm-68.93-3.72h-2v-5h2ZM365.87,268h-2v-5h2Zm-68.93-3.72h-2v-5h2ZM365.87,258h-2v-5h2Zm-68.93-3.72h-2v-5h2ZM365.87,248h-2v-5h2Zm-68.93-3.72h-2v-2.52h4.48v2h-2.48Zm63.18-.52h-3.73l-1.4-5.61,1.94-.48,1,4.09h2.17Zm-30.7,0h-5v-2h5Zm-10,0h-5v-2h5Zm-10,0h-5v-2h5ZM332,238.67l-1.94-.48,1.06-4.27h2.17v2h-.61Zm21.29-2.75h-5v-2h5Zm-10,0h-5v-2h5Z" style="fill:#407BFF"></path><g style="clip-path:url(#freepik--clip-path-4--inject-3)"><polygon points="357.17 242.76 355.22 234.92 331.9 234.92 329.95 242.76 295.94 242.76 295.94 304.17 364.87 304.17 364.87 242.76 357.17 242.76" style="fill:#407BFF;opacity:0.2"></polygon></g><polygon points="362.09 304.17 293.53 304.17 286.53 253.64 355.09 253.64 362.09 304.17" style="fill:#fff"></polygon><polygon points="363.23 305.17 359.59 305.17 359.59 303.17 360.94 303.17 360.75 301.83 362.73 301.56 363.23 305.17" style="fill:#407BFF"></polygon><path d="M354.7,305.17h-4.89v-2h4.89Zm-9.78,0H340v-2h4.89Zm-9.78,0h-4.89v-2h4.89Zm-9.78,0h-4.88v-2h4.88Zm-9.77,0H310.7v-2h4.89Zm-9.78,0h-4.89v-2h4.89Z" style="fill:#407BFF"></path><polygon points="296.03 305.17 292.66 305.17 292.2 301.83 294.18 301.56 294.4 303.17 296.03 303.17 296.03 305.17" style="fill:#407BFF"></polygon><path d="M291.5,296.77l-.71-5.06,2-.28.7,5.06Zm-1.41-10.13-.7-5.06,2-.28.7,5.07Zm-1.4-10.13-.7-5.06,2-.28.7,5.07Zm-1.4-10.13-.71-5.06,2-.27.7,5.06Z" style="fill:#407BFF"></path><polygon points="285.88 256.26 285.38 252.64 289.03 252.64 289.03 254.64 287.68 254.64 287.87 255.98 285.88 256.26" style="fill:#407BFF"></polygon><path d="M347.7,254.64h-4.89v-2h4.89Zm-9.78,0H333v-2h4.89Zm-9.78,0h-4.89v-2h4.89Zm-9.78,0h-4.88v-2h4.88Zm-9.77,0H303.7v-2h4.89Zm-9.78,0h-4.89v-2h4.89Z" style="fill:#407BFF"></path><polygon points="354.44 256.26 354.21 254.64 352.59 254.64 352.59 252.64 355.96 252.64 356.42 255.98 354.44 256.26" style="fill:#407BFF"></polygon><path d="M360.05,296.77l-.7-5.07,2-.27.7,5.06Zm-1.4-10.13-.7-5.06,2-.28.7,5.07Zm-1.41-10.13-.7-5.06,2-.28.71,5.07Zm-1.4-10.13-.7-5.06,2-.28.7,5.07Z" style="fill:#407BFF"></path><g style="opacity:0.4"><path d="M314.48,286.2l1.94-2.68a10.11,10.11,0,0,1-1.11-4.66c0-4.82,3.19-8.72,7.12-8.72a6.11,6.11,0,0,1,3,.82l1.32-1.84a10.1,10.1,0,0,0-4.34-1.06c-7.81,0-14.15,10.8-14.15,10.8A32.48,32.48,0,0,0,314.48,286.2Z" style="fill:#407BFF"></path><path d="M329.38,270.71l6.24-8.69a.87.87,0,0,0-1-1.32.89.89,0,0,1-.13.74l-25,34.7a.85.85,0,0,1-.39.29.87.87,0,0,0,.33.49.9.9,0,0,0,.51.16.86.86,0,0,0,.71-.36L317,288a10.79,10.79,0,0,0,5.48,1.67c7.82,0,14.16-10.8,14.16-10.8A31.45,31.45,0,0,0,329.38,270.71Zm-6.95,16.87a6.28,6.28,0,0,1-4.07-1.56l1-1.44a4.86,4.86,0,0,0,3,1.11c3.08,0,5.58-3.06,5.58-6.83a7.79,7.79,0,0,0-1.32-4.41l1-1.43a9.86,9.86,0,0,1,1.84,5.84C329.56,283.68,326.37,287.58,322.43,287.58Z" style="fill:#407BFF"></path><path d="M322.43,272c-3.08,0-5.58,3.06-5.58,6.83a8.14,8.14,0,0,0,.64,3.16l6.88-9.56A4.58,4.58,0,0,0,322.43,272Z" style="fill:#407BFF"></path></g></g><g id="freepik--Folder--inject-3"><path d="M249,125.82l4.26-5.22a8.11,8.11,0,0,1,6.16-3.06H286a5.77,5.77,0,0,1,5.25,3.06l2.69,5.22a5.74,5.74,0,0,0,5.24,3.05H315.1a5.76,5.76,0,0,1,5.82,6.86L307.69,224a8.24,8.24,0,0,1-7.88,6.86H174a5.76,5.76,0,0,1-5.83-6.86l13.23-88.24a8.26,8.26,0,0,1,7.88-6.86h53.59A8.12,8.12,0,0,0,249,125.82Z" style="fill:#407BFF"></path><path d="M249,125.82l4.26-5.22a8.11,8.11,0,0,1,6.16-3.06H286a5.77,5.77,0,0,1,5.25,3.06l2.69,5.22a5.74,5.74,0,0,0,5.24,3.05H315.1a5.76,5.76,0,0,1,5.82,6.86L307.69,224a8.24,8.24,0,0,1-7.88,6.86H174a5.76,5.76,0,0,1-5.83-6.86l13.23-88.24a8.26,8.26,0,0,1,7.88-6.86h53.59A8.12,8.12,0,0,0,249,125.82Z" style="fill:#fff;opacity:0.5"></path><path d="M175.93,137.28H291.2a8.62,8.62,0,0,1,8.69,8.57l-.07,76.41a8.64,8.64,0,0,1-8.71,8.57H175.84a8.63,8.63,0,0,1-8.7-8.57l.08-76.41A8.64,8.64,0,0,1,175.93,137.28Z" style="fill:#407BFF"></path><path d="M175.93,137.28H291.2a8.62,8.62,0,0,1,8.69,8.57l-.07,76.41a8.64,8.64,0,0,1-8.71,8.57H175.84a8.63,8.63,0,0,1-8.7-8.57l.08-76.41A8.64,8.64,0,0,1,175.93,137.28Z" style="fill:#fff;opacity:0.7000000000000001"></path><rect x="178.75" y="157.36" width="37.88" height="60.74" rx="2.38" style="fill:#407BFF"></rect><rect x="175.75" y="157.36" width="37.88" height="60.74" rx="2.38" style="fill:#407BFF"></rect><rect x="175.75" y="157.36" width="37.88" height="60.74" rx="2.38" style="fill:#fff;opacity:0.2"></rect><rect x="179.75" y="175.11" width="8.02" height="8.26" rx="0.99" style="fill:#407BFF"></rect><rect x="190.38" y="175.11" width="8.02" height="8.26" rx="0.99" style="fill:#407BFF"></rect><rect x="201.01" y="175.11" width="8.02" height="8.26" rx="0.99" style="fill:#407BFF"></rect><rect x="179.75" y="185.15" width="8.02" height="8.26" rx="0.99" style="fill:#407BFF"></rect><rect x="190.38" y="185.15" width="8.02" height="8.26" rx="0.99" style="fill:#407BFF"></rect><rect x="201.01" y="185.15" width="8.02" height="8.26" rx="0.99" style="fill:#407BFF"></rect><rect x="179.75" y="195.18" width="8.02" height="8.26" rx="0.99" style="fill:#407BFF"></rect><rect x="190.38" y="195.18" width="8.02" height="8.26" rx="0.99" style="fill:#407BFF"></rect><rect x="201.01" y="195.18" width="8.02" height="8.26" rx="0.99" style="fill:#407BFF"></rect><rect x="190.38" y="205.21" width="8.02" height="8.26" rx="0.99" style="fill:#407BFF"></rect><rect x="178.75" y="175.11" width="8.02" height="8.26" rx="0.99" style="fill:#407BFF"></rect><rect x="189.38" y="175.11" width="8.02" height="8.26" rx="0.99" style="fill:#407BFF"></rect><rect x="200.01" y="175.11" width="8.02" height="8.26" rx="0.99" style="fill:#407BFF"></rect><rect x="178.75" y="185.15" width="8.02" height="8.26" rx="0.99" style="fill:#407BFF"></rect><rect x="189.38" y="185.15" width="8.02" height="8.26" rx="0.99" style="fill:#407BFF"></rect><rect x="200.01" y="185.15" width="8.02" height="8.26" rx="0.99" style="fill:#407BFF"></rect><rect x="178.75" y="195.18" width="8.02" height="8.26" rx="0.99" style="fill:#407BFF"></rect><rect x="189.38" y="195.18" width="8.02" height="8.26" rx="0.99" style="fill:#407BFF"></rect><rect x="200.01" y="195.18" width="8.02" height="8.26" rx="0.99" style="fill:#407BFF"></rect><rect x="189.38" y="205.21" width="8.02" height="8.26" rx="0.99" style="fill:#407BFF"></rect><g style="opacity:0.5"><rect x="178.75" y="175.11" width="8.02" height="8.26" rx="0.99" style="fill:#fff"></rect><rect x="189.38" y="175.11" width="8.02" height="8.26" rx="0.99" style="fill:#fff"></rect><rect x="200.01" y="175.11" width="8.02" height="8.26" rx="0.99" style="fill:#fff"></rect><rect x="178.75" y="185.15" width="8.02" height="8.26" rx="0.99" style="fill:#fff"></rect><rect x="189.38" y="185.15" width="8.02" height="8.26" rx="0.99" style="fill:#fff"></rect><rect x="200.01" y="185.15" width="8.02" height="8.26" rx="0.99" style="fill:#fff"></rect><rect x="178.75" y="195.18" width="8.02" height="8.26" rx="0.99" style="fill:#fff"></rect><rect x="189.38" y="195.18" width="8.02" height="8.26" rx="0.99" style="fill:#fff"></rect><rect x="200.01" y="195.18" width="8.02" height="8.26" rx="0.99" style="fill:#fff"></rect><rect x="189.38" y="205.21" width="8.02" height="8.26" rx="0.99" style="fill:#fff"></rect></g><rect x="179.75" y="162.95" width="29.27" height="7.52" style="fill:#407BFF"></rect><g style="opacity:0.2"><path d="M186,166.7l1.48.84-.27.51-1.5-.88v1.7h-.55v-1.7l-1.5.88-.29-.51,1.5-.84-1.5-.84.29-.51,1.5.89v-1.71h.55v1.71l1.5-.89.27.51Z" style="fill:#fff"></path></g><g style="opacity:0.2"><path d="M191.94,166.7l1.49.84-.27.51-1.5-.88v1.7h-.56l0-1.7-1.5.88-.29-.51,1.5-.84-1.5-.84.29-.51,1.5.89,0-1.71h.56v1.71l1.5-.89.27.51Z" style="fill:#fff"></path></g><g style="opacity:0.2"><path d="M197.91,166.7l1.49.84-.28.51-1.5-.88v1.7h-.55v-1.7l-1.5.88-.28-.51,1.5-.84-1.5-.84.28-.51,1.5.89v-1.71h.55v1.71l1.5-.89.28.51Z" style="fill:#fff"></path></g><g style="opacity:0.2"><path d="M203.88,166.7l1.48.84-.27.51-1.5-.88v1.7H203v-1.7l-1.5.88-.29-.51,1.5-.84-1.5-.84.29-.51,1.5.89v-1.71h.55v1.71l1.5-.89.27.51Z" style="fill:#fff"></path></g><g style="opacity:0.4"><path d="M243.34,197l3.31-4.6a17.24,17.24,0,0,1-1.9-8c0-8.25,5.46-14.93,12.2-14.93a10.33,10.33,0,0,1,5.16,1.41l2.27-3.15A17.25,17.25,0,0,0,257,166c-13.38,0-24.23,18.49-24.23,18.49A55.47,55.47,0,0,0,243.34,197Z"></path><path d="M268.83,170.52l10.7-14.87a1.5,1.5,0,0,0-1.78-2.26,1.47,1.47,0,0,1-.22,1.26L234.8,214a1.43,1.43,0,0,1-.66.51,1.55,1.55,0,0,0,.57.84,1.49,1.49,0,0,0,2.09-.35l10.75-14.94A18.49,18.49,0,0,0,257,203c13.38,0,24.23-18.5,24.23-18.5S276.2,176,268.83,170.52ZM257,199.41a10.69,10.69,0,0,1-7-2.69l1.77-2.45a8.3,8.3,0,0,0,5.2,1.89c5.27,0,9.55-5.23,9.55-11.69a13.29,13.29,0,0,0-2.27-7.55l1.76-2.45a16.83,16.83,0,0,1,3.16,10C269.15,192.72,263.69,199.41,257,199.41Z"></path><path d="M257,172.78c-5.28,0-9.55,5.23-9.55,11.69a13.78,13.78,0,0,0,1.09,5.41l11.77-16.37A7.92,7.92,0,0,0,257,172.78Z"></path></g></g><g id="freepik--Character--inject-3"><g id="freepik--group--inject-3"><path d="M79.23,173.82s-11.87,20.8-12.75,25.78,10.11,36.85,10.11,36.85-2.42,8.39.22,9.8,7.25,4.26,7.91,1.85,0-10.39,0-10.39l-2-1.7s-7-33.29-7-34.45,12.76-20.79,12.76-20.79Z" style="fill:#e4897b"></path><path d="M89.86,184.77l-.46.64L81.76,196l-1,1.33L68.89,187.22s6.33-15.78,13.71-19.87l5.16,12.39L89,182.69Z" style="fill:#407BFF"></path><path d="M89.4,185.41,81.76,196c-1-9.95,4.08-14.8,6-16.26a7,7,0,0,1,.72-.5l.51,3.45Z" style="opacity:0.2;isolation:isolate"></path><polygon points="123.75 411.36 131.86 412.21 132.27 407.51 133.38 394.72 125.27 393.86 124.04 407.99 123.75 411.36" style="fill:#e4897b"></polygon><polygon points="83.27 410.33 91.13 410.33 91.2 408.55 91.21 408.33 91.61 396.93 91.62 396.7 91.78 392.33 83.91 392.33 83.27 410.33" style="fill:#e4897b"></polygon><polygon points="125.27 393.86 124.04 407.99 132.27 407.51 133.38 394.72 125.27 393.86" style="opacity:0.2;isolation:isolate"></polygon><polygon points="83.32 409.33 83.33 409.33 91.2 408.33 91.21 408.33 91.62 397.33 91.61 397.33 83.73 397.96 83.33 408.98 83.32 409.33" style="opacity:0.2;isolation:isolate"></polygon><path d="M92.22,409.85H82.67a.71.71,0,0,0-.67.54l-1.55,7a1.17,1.17,0,0,0,.9,1.38.71.71,0,0,0,.25,0c3.09-.05,5.34-.24,9.22-.24,2.39,0,9.6.25,12.9.25s3.73-3.26,2.38-3.56c-6.06-1.32-10.62-3.15-12.56-4.89A1.89,1.89,0,0,0,92.22,409.85Z" style="fill:#263238"></path><path d="M132.72,409.6h-9.55a.71.71,0,0,0-.67.54l-1.55,7a1.17,1.17,0,0,0,.9,1.38.71.71,0,0,0,.25,0c3.09-.05,5.34-.24,9.22-.24,2.39,0,9.6.25,12.9.25s3.73-3.26,2.38-3.56c-6.06-1.32-10.62-3.15-12.56-4.89A1.89,1.89,0,0,0,132.72,409.6Z" style="fill:#263238"></path><path d="M134.13,406.33H122.6s.94-99.26-11.53-132.78c-.88,11.08-1.87,22.58-2.84,32.16-.61,5.93-1.21,11-1.78,14.9-3.63,25-12.79,86.72-12.79,86.72H82.27s1.35-59.14,2.7-83.71c1.49-26.67,2.13-85.29,2.19-90.29h41.72C132.85,254.33,143,338.33,134.13,406.33Z" style="fill:#263238"></path><path d="M111.07,273.51c-.88,11.08-1.87,22.6-2.84,32.18-1.42-13.83-3.16-23.69-3.16-23.69s-1.63-1.34-6.11-8.49S99,253,99,253C98.82,265.41,111.07,273.51,111.07,273.51Z" style="opacity:0.2;isolation:isolate"></path><polygon points="135.42 403.08 134.86 406.33 121.23 406.33 121.23 403.33 135.42 403.08" style="fill:#407BFF"></polygon><polygon points="94.96 404.33 93.66 407.33 82.23 407.33 81.48 404.33 94.96 404.33" style="fill:#407BFF"></polygon><path d="M109.84,138.35s11.06-2.9,12.94-5.64-6.89-3.12-12.8-.66S109.84,138.35,109.84,138.35Z" style="fill:#263238"></path><path d="M109.84,138.35s11.06-2.9,12.94-5.64-6.89-3.12-12.8-.66S109.84,138.35,109.84,138.35Z" style="fill:#fff;opacity:0.2"></path><path d="M113.73,151.2c-.1.38-.21.75-.34,1.11a10.9,10.9,0,0,1-3.89,5.18,10,10,0,0,1-1.43.88,9.87,9.87,0,0,1-8.51.38,10,10,0,0,1-3.25-2.25c-3.94-4-3.84-8.57-4.28-16.35a10.65,10.65,0,0,1,14.71-10.63C114.37,132.63,115.41,144.2,113.73,151.2Z" style="fill:#e4897b"></path><path d="M109.5,157.49a10,10,0,0,1-1.43.88,9.87,9.87,0,0,1-8.51.38,11.37,11.37,0,0,1,1.39-2.64A15.32,15.32,0,0,1,109.5,157.49Z" style="opacity:0.2;isolation:isolate"></path><path d="M93.85,167.58c3.83,3.48,13.21,2.19,13.21,2.19s5.86-1.6,4.63-3.43c-3.45-.57-5.12-2.18-5.81-4.24a10,10,0,0,1-.35-3.94,20.71,20.71,0,0,1,.29-2.2l-11.6-8.59C95.74,153,97.6,163.47,93.85,167.58Z" style="fill:#e4897b"></path><path d="M104.53,126.17s2-1.26,5.56,2c3,2.79,0,5,1.77,8.6s-.62,7.1-.62,7.1-1.71,3.68-4.68,3.45c0,0-2.42,2.93-2,6s-4,5.43-9.9,5.35-3.56-3.78-3.56-3.78A24.44,24.44,0,0,1,87,148.25,23,23,0,0,1,85.26,139a12.48,12.48,0,0,1,3.43-9C92.65,125.51,102.09,123.27,104.53,126.17Z" style="fill:#263238"></path><path d="M105.08,145.68a5,5,0,0,0,2.59,3.45c1.58.67,2.62-1.56,2.39-3.9-.22-2.07-1.29-5-3-4.6S104.53,143.58,105.08,145.68Z" style="fill:#e4897b"></path><path d="M85.47,143.91s11.83,1.55,28.81-7.82c0,0-3.71-12.58-8.79-13s-19.74,5.34-20.66,7.72C83.76,133.6,85.47,143.91,85.47,143.91Z" style="fill:#407BFF"></path><path d="M86.17,141.64s-.24-3.86.6-4.35,4.82-1.31,5.49-.71,1.51,4.19,1.51,4.19S89.33,142.27,86.17,141.64Z" style="fill:#263238"></path><path d="M109.84,138.35s3.77-2.36,3.66-4.58l9.28-1.06S121.84,135.61,109.84,138.35Z" style="fill:#263238"></path><path d="M109.84,138.35s3.77-2.36,3.66-4.58l9.28-1.06S121.84,135.61,109.84,138.35Z" style="fill:#fff;opacity:0.2"></path><path d="M86.12,236.11s1.61-18.14-.78-45.73c-.62-7.1-1.5-14.82-2.74-23,0,0,22.69-5,38.51,0,0,0,1,5.22,2.25,13.71.35,2.43.73,5.12,1.1,8h0c.23,1.8.5,3.73.78,5.77,1.63,11.58,3.91,26.59,4.17,40.53Z" style="fill:#407BFF"></path><path d="M86.12,236.11s1.61-18.14-.78-45.73c2.2-17.8,8.51-22.8,8.51-22.8l12.42-.23c11.28,16.71,13.84,20.38,18.19,21.74h0c1.55,12,4.65,29.91,4.95,46.3Z" style="fill:#fff;opacity:0.7000000000000001"></path><path d="M125.25,194.87c-7.9-8.2-4.34-15.63-4.34-15.63l2.45,1.82c.35,2.43.73,5.12,1.1,8h0C124.7,190.9,125,192.83,125.25,194.87Z" style="opacity:0.2;isolation:isolate"></path><path d="M124.71,185.15s14.4,9.57,19.94,11.23,29.17-13.76,29.17-13.76l9.23,1.19s2-6.43,0-8-9.81.94-11,1.81-23.6,8.53-24.79,9-18-11.8-18-11.8Z" style="fill:#e4897b"></path><path d="M121.11,167.35s-6.73,8.36,0,19.87L135,195l7.51-14.22S132.19,172,121.11,167.35Z" style="fill:#407BFF"></path></g></g></svg>